PathFileType	4	(X/Y/Z)	/Users/itak/Documents/Research/Walk-IL/dataset/trc/00283_00010.trc
DataRate	CameraRate	NumFrames	NumMarkers	Units	OrigDataRate	OrigDataStartFrame	OrigNumFrames
100.000000	100.000000	4	54	mm	100.000000	240	642
Frame#	Time	RPSI			LPSI			L3			STRN			T10			C7			CLAV			RBAK			LBAK			LSHO			LUPA			LAEL			LAOL			LWTS			LWPS			LFRA			LIFD			LHPS			LHTS			RSHO			RUPA			RAEL			RAOL			RWTS			RWPS			RFRA			RIFD			RHTS			RHPS			RBHD			LFHD			RFHD			LBHD			LHIP			RASI			LASI			LKNE			LTHI			LANK			LTIP			LTOE			LMT1			LMT5			LHEE			RKNE			RANK			RTIP			RTOE			RMT1			RMT5			RHEE			RHIP			RTHI			*53			
		X1	Y1	Z1	X2	Y2	Z2	X3	Y3	Z3	X4	Y4	Z4	X5	Y5	Z5	X6	Y6	Z6	X7	Y7	Z7	X8	Y8	Z8	X9	Y9	Z9	X10	Y10	Z10	X11	Y11	Z11	X12	Y12	Z12	X13	Y13	Z13	X14	Y14	Z14	X15	Y15	Z15	X16	Y16	Z16	X17	Y17	Z17	X18	Y18	Z18	X19	Y19	Z19	X20	Y20	Z20	X21	Y21	Z21	X22	Y22	Z22	X23	Y23	Z23	X24	Y24	Z24	X25	Y25	Z25	X26	Y26	Z26	X27	Y27	Z27	X28	Y28	Z28	X29	Y29	Z29	X30	Y30	Z30	X31	Y31	Z31	X32	Y32	Z32	X33	Y33	Z33	X34	Y34	Z34	X35	Y35	Z35	X36	Y36	Z36	X37	Y37	Z37	X38	Y38	Z38	X39	Y39	Z39	X40	Y40	Z40	X41	Y41	Z41	X42	Y42	Z42	X43	Y43	Z43	X44	Y44	Z44	X45	Y45	Z45	X46	Y46	Z46	X47	Y47	Z47	X48	Y48	Z48	X49	Y49	Z49	X50	Y50	Z50	X51	Y51	Z51	X52	Y52	Z52	X53	Y53	Z53	X54	Y54	Z54	

241	2.4	1181.206787109375	951.5335083007812	57.47597885131836	1030.978637695312	934.3137817382812	147.9009552001953	1082.578979492188	1009.041625976562	106.3400268554688	955.2217407226562	1188.562866210938	-102.7815017700195	1076.147827148438	1125.062255859375	133.6190185546875	1025.915161132812	1369.6044921875	109.6062164306641	973.543212890625	1286.786743164062	-39.84072113037109	1124.911865234375	1237.032104492188	121.4259796142578	941.1693725585938	1324.905029296875	168.7051391601562	857.6077880859375	1324.231689453125	105.1538543701172	806.0253295898438	1200.713623046875	148.3916015625	786.7736206054688	1009.332214355469	110.1600112915039	857.1768798828125	974.7284545898438	150.2030181884766	793.2434692382812	908.510498046875	-93.9132080078125	733.4296875	874.669921875	-68.04003143310547	763.1930541992188	941.8197021484375	45.33834075927734	766.9041137695312	791.8734130859375	-237.3690032958984	724.2763671875	820.2584228515625	-138.3538208007812	755.7197875976562	863.1242065429688	-177.0929412841797	1144.614868164062	1359.570922851562	-16.61313819885254	1215.061401367188	1311.004028320312	-33.48823165893555	1307.463012695312	1061.460205078125	0.8570392727851868	1228.348510742188	1047.651733398438	51.30765914916992	1294.110717773438	816.8203125	-35.97772216796875	1372.5	837.6759643554688	-12.4650936126709	1330.283081054688	996.5595703125	-14.03421497344971	1362.254272460938	641.0244140625	52.97970962524414	1349.303466796875	707.8654174804688	-1.512360692024231	1393.8486328125	725.2599487304688	-11.9696102142334	1050.23779296875	1541.541137695312	11.97261238098145	841.9210815429688	1529.117309570312	-28.42392349243164	908.1869506835938	1536.465087890625	-93.04119873046875	948.3629150390625	1519.859741210938	113.8130493164062	916.55126953125	875.6668701171875	139.4425354003906	1087.902954101562	914.8451538085938	-144.7016754150391	878.61962890625	882.3197021484375	-0.7641386985778809	1025.255249023438	432.9976806640625	130.9166259765625	967.0032348632812	564.9105224609375	122.2567291259766	1190.718627929688	66.16207885742188	334.1749572753906	1103.488037109375	238.4428100585938	233.8889465332031	1260.084838867188	24.02532386779785	135.6017150878906	1294.158203125	28.6232795715332	206.5013122558594	1183.5498046875	35.15175247192383	215.2860260009766	1248.38427734375	84.82910919189453	378.7630615234375	1072.636352539062	483.4184875488281	-240.9348602294922	1049.773559570312	29.96148300170898	-313.9524536132812	1037.381225585938	366.643310546875	-275.7130432128906	857.404052734375	62.84137344360352	-346.4347534179688	887.5358276367188	48.8911247253418	-287.1792297363281	963.075927734375	30.43816947937012	-375.8738708496094	1072.498779296875	25.08557891845703	-244.8850860595703	1214.045654296875	915.8416748046875	-88.66893005371094	1152.497802734375	726.056640625	-189.2133636474609	nan	nan	nan	
242	2.41	1174.975463867188	953.4904174804688	47.14653778076172	1025.388427734375	934.760498046875	138.3992919921875	1076.50634765625	1009.582763671875	95.84573364257812	948.851318359375	1189.519653320312	-111.8219451904297	1071.248657226562	1125.40087890625	123.7611999511719	1021.973937988281	1370.20068359375	100.2885055541992	967.9863891601562	1287.599975585938	-48.90333938598633	1120.629272460938	1237.114624023438	111.1757507324219	937.529541015625	1325.751098632812	160.0085296630859	853.3297119140625	1325.382446289062	97.23677825927734	802.3434448242188	1201.823852539062	141.4608612060547	783.25537109375	1009.311157226562	103.8482055664062	854.52001953125	976.0364379882812	142.9493103027344	788.1113891601562	903.4033813476562	-97.99134826660156	729.1683959960938	869.64453125	-70.31101989746094	759.4746704101562	939.993408203125	40.51428985595703	760.1375122070312	783.2527465820312	-238.0649261474609	719.6975708007812	813.4072875976562	-139.0098571777344	749.565673828125	855.7573852539062	-179.3336486816406	1139.6298828125	1359.59423828125	-26.93573570251465	1209.736328125	1310.435546875	-44.61533355712891	1301.910034179688	1060.400756835938	-13.02916049957275	1223.264404296875	1046.492431640625	38.19913101196289	1288.134643554688	816.3193359375	-51.15062713623047	1366.711059570312	836.9703979492188	-28.10951042175293	1324.563110351562	995.7778930664062	-28.53549003601074	1362.510498046875	640.7096557617188	51.86965179443359	1349.726806640625	707.8528442382812	-0.6027585864067078	1388.137939453125	724.6018676757812	-28.35400772094727	1045.319580078125	1542.578735351562	2.212357759475708	836.5115966796875	1529.787963867188	-35.34195709228516	901.8805541992188	1537.283569335938	-100.8683242797852	944.7444458007812	1520.51220703125	105.1436462402344	911.2615356445312	875.2919311523438	130.7451477050781	1080.441772460938	916.6053466796875	-154.7209014892578	872.4144897460938	883.0897827148438	-9.224589347839355	1020.50439453125	432.5765380859375	121.3795318603516	962.6517333984375	564.4881591796875	112.935791015625	1189.849243164062	70.56350708007812	331.7044067382812	1100.47509765625	240.399169921875	227.9191741943359	1259.775390625	24.13974571228027	135.3728942871094	1293.698608398438	30.52551078796387	205.2526397705078	1182.965698242188	35.11025619506836	214.1201782226562	1247.164794921875	92.03580474853516	375.1985473632812	1063.721923828125	485.7232971191406	-250.7743988037109	1050.014282226562	29.76642799377441	-315.1976623535156	1029.888427734375	367.3337707519531	-283.4100036621094	856.774169921875	59.05502700805664	-348.0419006347656	887.5009155273438	47.24123764038086	-288.4066772460938	963.0565185546875	27.4911060333252	-377.0219421386719	1072.894653320312	26.02679443359375	-246.0596008300781	1206.930297851562	918.2467041015625	-99.45127105712891	1143.387329101562	728.9223022460938	-199.5820007324219	nan	nan	nan	
243	2.42	1168.576416015625	955.6467895507812	36.82271957397461	1019.723083496094	935.4906005859375	128.9870452880859	1070.31884765625	1010.589172363281	85.58306121826172	942.2169799804688	1190.919799804688	-120.8320465087891	1066.187866210938	1126.230102539062	114.0110397338867	1017.890380859375	1371.215454101562	90.91716003417969	962.2376098632812	1288.8583984375	-57.92913818359375	1116.162353515625	1237.650024414062	100.9019088745117	933.757568359375	1327.116088867188	151.3040771484375	848.9359130859375	1327.065063476562	89.31404113769531	798.435791015625	1203.551879882812	134.4869232177734	779.5487060546875	1009.794799804688	97.53912353515625	851.7137451171875	977.9951171875	135.7031097412109	782.9881591796875	898.0039672851562	-101.5761260986328	725.0291748046875	864.44677734375	-71.91410064697266	755.6786499023438	938.4063720703125	35.924072265625	753.3778686523438	773.7252807617188	-237.4951477050781	715.1364135742188	806.1599731445312	-138.6024475097656	743.450927734375	847.7227172851562	-180.7232818603516	1134.428466796875	1360.000366210938	-37.32271575927734	1204.158203125	1310.22216796875	-55.80971908569336	1295.96240234375	1059.703125	-27.18474960327148	1217.84716796875	1045.66796875	24.88238906860352	1281.684204101562	816.1477661132812	-66.71238708496094	1360.438598632812	836.5798950195312	-44.12153625488281	1318.400512695312	995.3093872070312	-43.31999206542969	1362.053588867188	640.460693359375	49.12059783935547	1349.416381835938	707.88134765625	-1.482454299926758	1381.934814453125	724.2680053710938	-45.11603164672852	1040.3056640625	1543.955322265625	-7.584529876708984	831.023681640625	1530.910034179688	-42.27631759643555	895.4945678710938	1538.543090820312	-108.6838531494141	941.0745849609375	1521.551391601562	96.46034240722656	905.886962890625	875.318115234375	122.2530212402344	1072.676391601562	918.7787475585938	-164.65283203125	865.8994750976562	884.27197265625	-17.6141185760498	1015.019226074219	432.1279296875	111.2190780639648	957.8682861328125	564.1736450195312	103.2793579101562	1188.935913085938	75.47415161132812	328.6982116699219	1097.110717773438	242.5662994384766	221.5037841796875	1259.391479492188	24.25894737243652	135.1592102050781	1293.18701171875	32.66277313232422	203.7017211914062	1182.357666015625	34.97198486328125	212.8551025390625	1245.852416992188	100.0508270263672	370.7063293457031	1055.526489257812	487.7598266601562	-260.22509765625	1050.42431640625	29.46483612060547	-316.3429870605469	1023.20068359375	367.8905334472656	-290.7057800292969	856.6085815429688	56.30831146240234	-349.9000244140625	887.7969970703125	46.38530731201172	-289.9234619140625	963.5579833984375	25.2866268157959	-378.2498474121094	1073.359497070312	26.7752857208252	-247.1500396728516	1199.560180664062	921.0076293945312	-110.2592697143555	1134.267822265625	732.0242309570312	-209.9064178466797	nan	nan	nan	
244	2.43	1162.13037109375	957.912109375	26.48272132873535	1014.130981445312	936.4846801757812	119.6932067871094	1064.182739257812	1012.0322265625	75.65841674804688	935.325439453125	1192.705444335938	-129.7707824707031	1061.030639648438	1127.520874023438	104.3772048950195	1013.670959472656	1372.611938476562	81.50811767578125	956.3009033203125	1290.517822265625	-66.89048767089844	1111.53857421875	1238.624755859375	90.60824584960938	929.8775634765625	1328.953735351562	142.6224060058594	844.4522705078125	1329.225708007812	81.41350555419922	794.285888671875	1205.8486328125	127.4689178466797	775.6290893554688	1010.782958984375	91.25279235839844	848.732177734375	980.5650024414062	128.5299835205078	777.909423828125	892.400390625	-104.6307067871094	721.0167846679688	859.1861572265625	-72.83051300048828	751.8155517578125	937.0901489257812	31.59731292724609	746.7305297851562	763.4049682617188	-235.5573120117188	710.5968627929688	798.6864013671875	-137.068115234375	737.448486328125	839.1145629882812	-181.1979675292969	1128.98779296875	1360.773681640625	-47.78309631347656	1198.309814453125	1310.389038085938	-67.08158874511719	1289.615844726562	1059.38330078125	-41.59489440917969	1212.112426757812	1045.196655273438	11.39262104034424	1274.724853515625	816.3052978515625	-82.64458465576172	1353.656616210938	836.5140380859375	-60.50078582763672	1311.78759765625	995.1663818359375	-58.36894226074219	1360.1611328125	640.2584228515625	43.03458404541016	1347.648803710938	707.9324340820312	-5.831846714019775	1375.205932617188	724.2662353515625	-62.25511169433594	1035.203247070312	1545.603515625	-17.41209602355957	825.4619140625	1532.4560546875	-49.21847915649414	889.0377807617188	1540.200317382812	-116.4822845458984	937.3697509765625	1522.95263671875	87.80309295654297	900.5409545898438	875.7726440429688	114.0149002075195	1064.650268554688	921.2439575195312	-174.4485931396484	859.1248779296875	885.7568359375	-25.86074829101562	1008.698913574219	431.6079406738281	100.4711303710938	952.5742797851562	563.95751953125	93.34053802490234	1187.974853515625	80.93085479736328	325.0496215820312	1093.336791992188	244.966552734375	214.6295013427734	1258.922729492188	24.36665344238281	134.9649963378906	1292.5986328125	35.0495491027832	201.7870635986328	1181.735229492188	34.74243927001953	211.5125885009766	1244.435913085938	108.8916931152344	365.0898742675781	1048.106567382812	489.3859252929688	-269.1543273925781	1050.843627929688	29.1024112701416	-317.3658752441406	1017.276794433594	368.2051086425781	-297.512451171875	856.598876953125	54.26980590820312	-351.6141662597656	888.1890869140625	45.9747428894043	-291.3932189941406	964.2283935546875	23.74585723876953	-379.3570251464844	1073.826904296875	27.34929847717285	-248.1515808105469	1191.999633789062	923.9653930664062	-121.1044006347656	1125.249389648438	735.1378784179688	-220.1929473876953	nan	nan	nan	
